<svg xmlns:xlink="http://www.w3.org/1999/xlink" xmlns="http://www.w3.org/2000/svg" class="css-ze2te4 css-qd6ojx" viewBox="0 0 92.10526315789474 72.29572973785153" width="110"  height="86" ><g transform="translate(-6.311692727476646, -14.901629570909659) scale(1.6303751653353138)" class="css-1swyd2q" fill="#41A4C3"><g xmlns="http://www.w3.org/2000/svg" fill="#41A4C3"><path fill="#41A4C3" d="M44.868,25.026c-2.097,0-3.795,1.7-3.795,3.796   c0,2.096,1.698,3.796,3.795,3.796c2.095,0,3.796-1.7,3.796-3.796C48.664,26.726,46.963,25.026,44.868,25.026z M19.813,25.026   c-2.098,0-3.796,1.7-3.796,3.796c0,2.096,1.699,3.796,3.796,3.796c2.096,0,3.795-1.7,3.795-3.796   C23.608,26.726,21.909,25.026,19.813,25.026z M9.242,20.24c-0.741-0.744-1.11-1.718-1.11-2.686c0-0.973,0.369-1.946,1.11-2.687   c0.745-0.74,1.714-1.109,2.686-1.109c0.973,0,1.946,0.369,2.686,1.109l-0.887,0.655c5.137-3.995,11.597-6.382,18.613-6.382   c7.018,0,13.469,2.386,18.613,6.382l-0.884-0.652c0.741-0.741,1.711-1.11,2.686-1.11c0.97,0,1.944,0.369,2.683,1.11   c0.738,0.745,1.107,1.718,1.107,2.686c0,0.974-0.366,1.946-1.107,2.687l0.886,0.651c12.835,12.834-9.011,18.613-9.011,18.613   H17.368c-0.63,0-22.741-4.884-9.011-18.613L9.242,20.24z"></path></g><path xmlns="http://www.w3.org/2000/svg" fill="#41A4C3" d="M52.358,53.063c-2.55,0-4.617-2.067-4.617-4.618l0,0c0-2.55,2.067-4.617,4.617-4.617l0,0  c2.55,0,4.617,2.067,4.617,4.617l0,0C56.976,50.996,54.908,53.063,52.358,53.063L52.358,53.063z"></path><path xmlns="http://www.w3.org/2000/svg" fill="#41A4C3" d="M14.422,53.483c-2.551,0-4.618-2.067-4.618-4.618l0,0c0-2.55,2.067-4.617,4.618-4.617l0,0  c2.551,0,4.618,2.067,4.618,4.617l0,0C19.04,51.416,16.973,53.483,14.422,53.483L14.422,53.483z"></path><path xmlns="http://www.w3.org/2000/svg" fill="#41A4C3" d="M18.526,40.461h27.726C46.252,40.461,32.81,45.081,18.526,40.461z"></path></g></svg>